<svg width="152" height="24" viewBox="0 0 152 24" fill="none" xmlns="http://www.w3.org/2000/svg">
<path d="M11.1093 1.74536C11.4804 1.01811 12.5196 1.01811 12.8907 1.74536L15.366 6.59569C15.5113 6.88041 15.784 7.07851 16.0997 7.12872L21.4775 7.98402C22.2838 8.11226 22.605 9.10055 22.028 9.67826L18.18 13.5312C17.9541 13.7574 17.8499 14.0779 17.8997 14.3937L18.7481 19.7726C18.8753 20.5791 18.0346 21.1899 17.3069 20.8197L12.4534 18.3507C12.1685 18.2057 11.8315 18.2057 11.5466 18.3507L6.69308 20.8197C5.96535 21.1899 5.12466 20.5791 5.25187 19.7726L6.10028 14.3937C6.15008 14.0779 6.04593 13.7574 5.82005 13.5312L1.97201 9.67826C1.39504 9.10055 1.71616 8.11226 2.5225 7.98402L7.90035 7.12872C8.21604 7.07851 8.4887 6.88041 8.634 6.59569L11.1093 1.74536Z" fill="#4F4F4F"/>
<path d="M43.1093 1.74536C43.4804 1.01811 44.5196 1.01811 44.8907 1.74536L47.366 6.59569C47.5113 6.88041 47.784 7.07851 48.0997 7.12872L53.4775 7.98402C54.2838 8.11226 54.605 9.10055 54.028 9.67826L50.18 13.5312C49.9541 13.7574 49.8499 14.0779 49.8997 14.3937L50.7481 19.7726C50.8753 20.5791 50.0346 21.1899 49.3069 20.8197L44.4534 18.3507C44.1685 18.2057 43.8315 18.2057 43.5466 18.3507L38.6931 20.8197C37.9653 21.1899 37.1247 20.5791 37.2519 19.7726L38.1003 14.3937C38.1501 14.0779 38.0459 13.7574 37.82 13.5312L33.972 9.67826C33.395 9.10055 33.7162 8.11226 34.5225 7.98402L39.9003 7.12872C40.216 7.07851 40.4887 6.88041 40.634 6.59569L43.1093 1.74536Z" fill="#4F4F4F"/>
<path d="M75.1093 1.74536C75.4804 1.01811 76.5196 1.01811 76.8907 1.74536L79.366 6.59569C79.5113 6.88041 79.784 7.07851 80.0997 7.12872L85.4775 7.98402C86.2838 8.11226 86.605 9.10055 86.028 9.67826L82.18 13.5312C81.9541 13.7574 81.8499 14.0779 81.8997 14.3937L82.7481 19.7726C82.8753 20.5791 82.0346 21.1899 81.3069 20.8197L76.4534 18.3507C76.1685 18.2057 75.8315 18.2057 75.5466 18.3507L70.6931 20.8197C69.9653 21.1899 69.1247 20.5791 69.2519 19.7726L70.1003 14.3937C70.1501 14.0779 70.0459 13.7574 69.82 13.5312L65.972 9.67826C65.395 9.10055 65.7162 8.11226 66.5225 7.98402L71.9003 7.12872C72.216 7.07851 72.4887 6.88041 72.634 6.59569L75.1093 1.74536Z" fill="#4F4F4F"/>
<path d="M107.109 1.74536C107.48 1.01811 108.52 1.01811 108.891 1.74536L111.366 6.59569C111.511 6.88041 111.784 7.07851 112.1 7.12872L117.477 7.98402C118.284 8.11226 118.605 9.10055 118.028 9.67826L114.18 13.5312C113.954 13.7574 113.85 14.0779 113.9 14.3937L114.748 19.7726C114.875 20.5791 114.035 21.1899 113.307 20.8197L108.453 18.3507C108.169 18.2057 107.831 18.2057 107.547 18.3507L102.693 20.8197C101.965 21.1899 101.125 20.5791 101.252 19.7726L102.1 14.3937C102.15 14.0779 102.046 13.7574 101.82 13.5312L97.972 9.67826C97.395 9.10055 97.7162 8.11226 98.5225 7.98402L103.9 7.12872C104.216 7.07851 104.489 6.88041 104.634 6.59569L107.109 1.74536Z" fill="#4F4F4F"/>
<path d="M139.109 1.74536C139.48 1.01811 140.52 1.01811 140.891 1.74536L143.366 6.59569C143.511 6.88041 143.784 7.07851 144.1 7.12872L149.477 7.98402C150.284 8.11226 150.605 9.10055 150.028 9.67826L146.18 13.5312C145.954 13.7574 145.85 14.0779 145.9 14.3937L146.748 19.7726C146.875 20.5791 146.035 21.1899 145.307 20.8197L140.453 18.3507C140.169 18.2057 139.831 18.2057 139.547 18.3507L134.693 20.8197C133.965 21.1899 133.125 20.5791 133.252 19.7726L134.1 14.3937C134.15 14.0779 134.046 13.7574 133.82 13.5312L129.972 9.67826C129.395 9.10055 129.716 8.11226 130.523 7.98402L135.9 7.12872C136.216 7.07851 136.489 6.88041 136.634 6.59569L139.109 1.74536Z" fill="#4F4F4F"/>
</svg>
